<svg width="20" height="19" viewBox="0 0 20 19" fill="none" xmlns="http://www.w3.org/2000/svg">
<path d="M19.4916 14.1104C19.366 13.9174 18.5308 13.5092 18.5308 13.5092C18.1982 13.3459 15.7518 12.1433 15.2936 11.9726C14.9019 11.8315 14.451 11.6682 14.0519 12.2695C13.7489 12.7223 12.862 13.7616 12.5663 14.0882C12.3668 14.3183 12.1746 14.3925 11.7238 14.1698C11.6499 14.1327 9.46953 13.1974 7.96917 11.8612C6.6388 10.6809 5.71493 9.21859 5.37495 8.647C5.168 8.29811 5.30104 8.13481 5.55972 7.87499C5.71493 7.71911 6.40968 6.88029 6.46142 6.80606C6.57228 6.63533 6.77184 6.23448 6.77184 6.23448C6.97139 5.84105 6.84575 5.49959 6.73488 5.26947C6.65358 5.11358 5.40451 2.07751 5.27887 1.79543C4.9241 0.941768 4.53977 0.897229 4.17762 0.912075C4.00024 0.926921 2.33728 0.934345 1.81252 1.51335L1.71644 1.61727C1.19907 2.16659 0.119995 3.31718 0.119995 5.5367C0.119995 6.0489 0.201295 6.58337 0.371287 7.17722C0.681706 8.24615 1.28037 9.41901 2.07859 10.4879C2.09338 10.5102 3.31288 12.2027 3.91894 12.9079C5.84058 15.1274 8.00612 16.7679 10.1938 17.629C12.9876 18.7276 14.1849 18.98 14.8649 18.98C15.1606 18.98 15.7888 18.8316 15.9218 18.8167C16.7792 18.7425 18.8043 17.681 19.233 16.4859C19.6321 15.3501 19.6395 14.3628 19.4916 14.1104Z" fill="#4EBE99"/>
</svg>
