<svg width="21" height="18" viewBox="0 0 21 18" fill="none" xmlns="http://www.w3.org/2000/svg">
<path d="M17.0415 2.62314H15.8847L14.2238 0.425704C14.1051 0.256671 13.8679 0.143982 13.6602 0.143982H7.07579C6.83852 0.143982 6.6309 0.256671 6.51226 0.425704L4.85132 2.62314H3.69459C1.91501 2.62314 0.432022 4.00358 0.432022 5.72209V14.709C0.432022 16.3994 1.88535 17.808 3.69459 17.808H17.0415C18.821 17.808 20.304 16.4275 20.304 14.709V5.72209C20.304 4.00358 18.821 2.62314 17.0415 2.62314ZM10.368 14.6809C7.72831 14.6809 5.56315 12.6525 5.56315 10.117C5.56315 7.58146 7.69865 5.55305 10.368 5.55305C13.0077 5.55305 15.1729 7.58146 15.1729 10.117C15.1729 12.6525 13.0077 14.6809 10.368 14.6809Z" fill="#4EBE99"/>
</svg>
