<svg width="26" height="22" viewBox="0 0 26 22" fill="none" xmlns="http://www.w3.org/2000/svg">
<path fill-rule="evenodd" clip-rule="evenodd" d="M25.7457 0H0.27565C0.132312 0 0 0.119743 0 0.283028V21.6952C0 21.8694 0.132312 22 0.27565 22H25.7347C25.889 22 25.9993 21.8694 25.9993 21.6952V0.283028C26.0103 0.119743 25.889 0 25.7457 0ZM6.51636 5.20336C7.56383 5.20336 8.37976 6.01979 8.37976 7.04305C8.37976 8.06631 7.56383 8.88273 6.51636 8.88273C5.52402 8.88273 4.664 8.06631 4.664 7.04305C4.664 6.01979 5.52402 5.20336 6.51636 5.20336ZM4.97272 17.6348L7.37639 12.377L10.2542 15.1856L13.5289 9.98219L17.9503 14.6086L21.8535 6.64028L22.6915 17.6457H4.97272V17.6348Z" fill="#A5BBC2"/>
</svg>
