<svg width="26" height="25" viewBox="0 0 26 25" fill="none" xmlns="http://www.w3.org/2000/svg">
<path d="M13 0C5.81932 0 3.05176e-05 5.59547 3.05176e-05 12.5C3.05176e-05 19.4045 5.81932 25 13 25C20.1807 25 26 19.4045 26 12.5C26 5.59547 20.1807 0 13 0ZM6.42532 11.5262C6.42532 10.6801 7.13924 10.0016 8.01089 10.0016C8.88253 10.0016 9.59645 10.6881 9.59645 11.5262C9.59645 12.3643 8.88253 13.0508 8.01089 13.0508C7.13924 13.0508 6.42532 12.3723 6.42532 11.5262ZM13 19.3247C10.9081 19.3247 9.18138 17.8321 8.90744 15.8924H17.1009C16.8187 17.8321 15.092 19.3247 13 19.3247ZM17.9892 13.0587C17.1092 13.0587 16.4036 12.3723 16.4036 11.5342C16.4036 10.696 17.1175 10.0096 17.9892 10.0096C18.8608 10.0096 19.5747 10.696 19.5747 11.5342C19.5747 12.3723 18.8608 13.0587 17.9892 13.0587Z" fill="#A5BBC2"/>
</svg>
