<svg width="44" height="35" viewBox="0 0 44 35" fill="none" xmlns="http://www.w3.org/2000/svg">
<path fill-rule="evenodd" clip-rule="evenodd" d="M23.3305 3.12816C23.4325 5.07692 24.2336 18.5801 24.2336 18.5801C24.2336 18.5801 23.884 22.3903 26.9138 19.3654C29.9436 16.3405 42.3103 3.99347 42.3103 3.99347C42.3103 3.99347 45.3984 0.415894 41.0212 0.415894C34.5757 0.415894 13.4036 0.415894 13.4036 0.415894C7.44602 0.415894 2.57361 5.28052 2.57361 11.2286C2.57361 14.2026 3.78989 16.9076 5.75634 18.8637L20.7377 3.90621C20.7377 3.90621 23.2358 1.31756 23.3305 3.12816Z" fill="url(#paint0_linear_208_3694)"/>
<path fill-rule="evenodd" clip-rule="evenodd" d="M20.5557 31.7633C20.4537 29.8146 19.6526 16.3114 19.6526 16.3114C19.6526 16.3114 20.0022 12.5011 16.9724 15.5261C13.9426 18.551 1.58314 30.898 1.58314 30.898C1.58314 30.898 -1.51219 34.4756 2.86497 34.4756C9.31054 34.4756 30.4826 34.4756 30.4826 34.4756C36.4402 34.4756 41.3126 29.611 41.3126 23.6629C41.3126 20.6888 40.0963 17.9838 38.1299 16.0278L23.1485 30.9853C23.1485 30.9853 20.6577 33.5739 20.5557 31.7633Z" fill="#007C91"/>
<defs>
<linearGradient id="paint0_linear_208_3694" x1="22.9708" y1="0.415894" x2="22.9708" y2="20.5326" gradientUnits="userSpaceOnUse">
<stop stop-color="#4EBE99"/>
<stop offset="1" stop-color="#4EBE99"/>
</linearGradient>
</defs>
</svg>
