<svg width="41" height="47" viewBox="0 0 41 47" fill="none" xmlns="http://www.w3.org/2000/svg">
<path d="M20.2743 46.6255C28.4391 46.6255 35.7546 43.0102 40.7408 37.3204C37.1376 36.8351 31.7875 36.2406 26.1219 36.0344C24.7874 35.9859 23.4408 35.9495 22.0941 35.9495C14.2327 35.9495 5.01245 37.0171 0.475128 37.6115C0.353809 37.6237 0.244624 37.6601 0.135437 37.6965C5.12163 43.1679 12.2794 46.6255 20.2743 46.6255Z" fill="#FEE978"/>
<path d="M29.5674 0.633536C28.9486 -0.276354 27.2138 -0.1793 25.6852 0.851909C25.2969 1.11881 24.9573 1.42211 24.6782 1.73754C24.7146 1.14307 24.5569 0.645667 24.1687 0.354503C23.3437 -0.264223 21.8394 0.330239 20.796 1.70114C20.4685 2.13789 20.238 2.5989 20.0802 3.03565C19.2674 3.24189 18.4182 3.3996 15.3731 3.35107C12.4857 3.30255 9.68323 4.11538 9.68323 8.66483C9.68323 11.5158 11.1997 12.7411 11.3332 18.3097C11.4181 21.925 10.581 28.2578 14.4025 27.7361C18.2119 27.2145 30.0405 5.66826 30.0405 5.66826L27.9538 4.13965C29.4703 3.12057 30.1861 1.54343 29.5674 0.633536Z" fill="#D6682E"/>
<path d="M24.7268 25.0065H14.8878V41.3481H24.7268V25.0065Z" fill="#F9AB8D"/>
<path d="M18.2846 29.9441C18.2846 29.9441 21.5723 32.5282 24.7266 33.0984V27.9424C22.3124 28.3549 18.2846 29.0828 18.2846 29.0828V29.9441Z" fill="#331538"/>
<path d="M13.8445 24.23C13.8445 27.7119 16.6591 30.5265 20.1409 30.5265H22.264C25.855 30.5265 28.7667 27.6148 28.7667 24.0238V6.97852H13.8445V24.23Z" fill="#F9AB8D"/>
<path d="M11.503 17.1814C10.217 17.9215 10.2898 19.3045 11.0541 20.6147C11.8184 21.9371 13.5654 22.6408 14.451 22.1312C15.3367 21.6217 15.4337 20.1416 14.6694 18.8192C13.9051 17.509 12.3886 16.684 11.503 17.1814Z" fill="#F9AB8D"/>
<path d="M28.0994 3.04773C24.0231 4.32158 20.3714 4.58848 20.3714 6.84501C20.3714 9.10154 23.829 10.9213 28.0994 10.9213C32.3698 10.9213 37.0891 8.04606 36.4583 4.60061C36.0579 2.38048 34.1411 1.15516 28.0994 3.04773Z" fill="#D6682E"/>
<path d="M13.5653 6.51746C13.5653 6.51746 13.1043 18.4309 13.9293 18.4795C14.7542 18.528 15.009 16.2108 14.8028 13.2142C14.5965 10.2177 16.3192 8.59201 19.3643 9.34418C24.6174 10.6423 26.4979 10.8364 26.4979 10.8364L23.3193 6.51746H13.5653Z" fill="#D6682E"/>
<path d="M36.5432 39.7466L36.6402 41.1297C37.2953 40.6323 37.9262 40.1227 38.5206 39.5768L36.5432 39.7466Z" fill="#FEE978"/>
<path d="M1.79749 39.3706C3.18052 40.6566 4.70914 41.7848 6.33481 42.7675L6.55318 39.7467L1.79749 39.3706Z" fill="#FEE978"/>
<path d="M13.444 38.8611L13.7352 45.8005C15.834 46.3222 18.0056 46.6255 20.2621 46.6255C22.1668 46.6255 24.0352 46.4314 25.8307 46.0553L26.134 38.8611H13.444Z" fill="white"/>
<path d="M24.9088 46.213C27.323 45.8005 29.6281 45.0605 31.7875 44.0535L25.7216 36.0465L24.9088 46.213Z" fill="#F5DB58"/>
<path d="M8.09399 43.7381C10.1685 44.7815 12.3765 45.5822 14.718 46.0674L13.9294 36.0465L8.09399 43.7381Z" fill="#F5DB58"/>
<path d="M19.8133 38.861C19.8133 38.861 29.2276 42.7796 28.9607 42.4884C28.6938 42.1973 24.7752 34.1174 24.7752 34.1174C24.7874 34.166 23.7683 37.4537 19.8133 38.861Z" fill="white"/>
<path d="M14.8514 34.1297C14.8514 34.1297 10.9207 42.2095 10.6659 42.5007C10.399 42.7919 19.8133 38.8733 19.8133 38.8733C15.8705 37.4538 14.8514 34.1661 14.8514 34.1297Z" fill="white"/>
</svg>
