<svg width="25" height="21" viewBox="0 0 25 21" fill="none" xmlns="http://www.w3.org/2000/svg"><path d="M20.873 15.855c2.658-2.372 4.127-5.06 4.127-5.06s-4.688-8.593-12.5-8.593c-1.5.005-2.984.317-4.36.918l1.204 1.205a9.288 9.288 0 0 1 3.156-.56c3.313 0 6.06 1.824 8.075 3.838.97.975 1.838 2.044 2.594 3.192a20.596 20.596 0 0 1-2.594 3.192c-.258.259-.527.513-.808.76l1.106 1.108Z" fill="#97B5BF"/><path d="M17.652 12.633a5.469 5.469 0 0 0-6.99-6.99l1.285 1.285a3.906 3.906 0 0 1 4.42 4.42l1.285 1.285Zm-4.599 2.03 1.285 1.284a5.47 5.47 0 0 1-6.99-6.99l1.285 1.285a3.907 3.907 0 0 0 4.42 4.42Z" fill="#97B5BF"/><path d="M5.234 6.842c-.28.25-.551.503-.809.761a20.523 20.523 0 0 0-2.594 3.192l.305.45c.523.75 1.297 1.75 2.289 2.743 2.014 2.014 4.764 3.839 8.075 3.839a9.258 9.258 0 0 0 3.156-.563l1.204 1.207c-1.376.6-2.86.913-4.36.918-7.812 0-12.5-8.594-12.5-8.594s1.467-2.689 4.127-5.059l1.106 1.108.001-.002Zm16.088 13.882L2.572 1.974 3.678.866l18.75 18.75-1.106 1.107Z" fill="#97B5BF"/></svg>
