<svg width="20" height="15" viewBox="0 0 20 15" fill="none" xmlns="http://www.w3.org/2000/svg"><path d="M10 8.812a3.125 3.125 0 1 1 0-6.25 3.125 3.125 0 0 1 0 6.25Z" fill="#97B5BF"/><path d="M17.5 0A2.5 2.5 0 0 1 20 2.5v10a2.5 2.5 0 0 1-2.5 2.5h-15A2.5 2.5 0 0 1 0 12.5v-10A2.5 2.5 0 0 1 2.5 0h15ZM4.003 13.75C4.569 12.162 6.203 10 10 10c3.796 0 5.431 2.162 5.998 3.75H17.5a1.25 1.25 0 0 0 1.25-1.25v-10a1.25 1.25 0 0 0-1.25-1.25h-15A1.25 1.25 0 0 0 1.25 2.5v10a1.25 1.25 0 0 0 1.25 1.25h1.503Z" fill="#97B5BF"/></svg>
